<?xml version="1.0" standalone="no"?>
<!DOCTYPE svg PUBLIC "-//W3C//DTD SVG 20010904//EN"
 "http://www.w3.org/TR/2001/REC-SVG-20010904/DTD/svg10.dtd">
<svg version="1.0" xmlns="http://www.w3.org/2000/svg"
 width="512.000000pt" height="512.000000pt" viewBox="0 0 512.000000 512.000000"
 preserveAspectRatio="xMidYMid meet">

<g transform="translate(0.000000,512.000000) scale(0.100000,-0.100000)"
fill="#000000" stroke="none">
<path d="M606 5104 c-246 -53 -458 -230 -549 -457 -61 -151 -58 -42 -55 -2122
4 -2132 -4 -1933 78 -2100 75 -151 194 -270 345 -345 168 -82 -28 -75 2135
-75 2163 0 1966 -7 2135 75 149 72 270 194 345 345 82 168 75 -28 75 2135 0
2163 7 1967 -75 2135 -75 151 -196 273 -345 345 -169 82 33 74 -2110 77 -1662
1 -1919 0 -1979 -13z m1421 -950 c15 -11 36 -36 45 -55 17 -32 18 -120 18
-1412 0 -1496 3 -1420 -55 -1465 -28 -22 -30 -22 -515 -22 l-487 0 -34 23
c-19 13 -39 38 -46 57 -15 45 -18 2745 -3 2801 12 41 45 76 86 89 16 5 239 8
496 7 455 -2 467 -3 495 -23z m2086 3 c15 -9 35 -29 44 -44 17 -25 18 -79 18
-823 0 -872 2 -842 -60 -880 -31 -19 -49 -20 -511 -20 -463 0 -480 1 -512 20
-64 39 -62 10 -62 870 0 831 -1 820 48 863 11 10 33 22 48 27 16 5 238 8 494
7 426 -2 468 -3 493 -20z"/>
</g>
</svg>
